<svg width="414" height="600" viewBox="0 0 414 600" fill="none" xmlns="http://www.w3.org/2000/svg">
<path fill-rule="evenodd" clip-rule="evenodd" d="M-17.5773 0.248245C2.20187 -1.93123 22.6435 10.4836 31.73 27.9264C39.626 43.0837 24.6263 58.6959 21.6089 75.4712C18.1863 94.4993 30.208 120.05 13.3747 129.974C-3.50705 139.926 -23.7559 123.121 -39.4942 111.492C-51.0376 102.963 -56.6694 90.026 -59.5406 76.0956C-62.298 62.7172 -61.3855 49.4428 -54.7537 37.4561C-45.8593 21.3798 -36.0484 2.28358 -17.5773 0.248245Z" fill="#0CCC83" fill-opacity="0.19"/>
<path fill-rule="evenodd" clip-rule="evenodd" d="M-12.1425 212.219C-6.76866 211.593 -0.784706 212.151 3.00274 215.996C6.76915 219.819 6.60566 225.716 6.42437 231.067C6.25123 236.177 5.98896 241.913 2.0148 245.154C-1.79016 248.257 -7.23848 246.597 -12.1425 246.208C-16.4513 245.867 -20.6926 245.573 -24.2129 243.078C-28.511 240.03 -33.5211 236.318 -33.4999 231.067C-33.4788 225.821 -28.0605 222.632 -24.1165 219.151C-20.525 215.982 -16.9105 212.773 -12.1425 212.219Z" fill="#325346"/>
<path fill-rule="evenodd" clip-rule="evenodd" d="M-43.6828 405.815C-15.5768 396.49 16.0073 389.982 41.7699 404.578C73.792 422.72 113.196 454.144 104.871 489.978C96.3153 526.806 40.0197 520.764 9.56581 543.194C-12.037 559.105 -17.1597 595.31 -43.6828 599.39C-71.5752 603.681 -98.8121 584.688 -116.306 562.557C-132.188 542.465 -136.567 514.772 -130.172 489.978C-124.882 469.468 -101.723 461.924 -86.5392 447.148C-71.7526 432.759 -63.2699 412.314 -43.6828 405.815Z" fill="#172E25"/>
<path fill-rule="evenodd" clip-rule="evenodd" d="M404.049 117.335C416.327 115.927 430.194 107.407 439.657 115.328C449.177 123.296 446.836 138.739 444.041 150.811C441.824 160.386 433.81 166.612 426.306 172.989C419.658 178.64 412.644 183.233 404.049 184.802C393.041 186.811 381.022 189.266 371.808 182.937C361.376 175.771 353.73 163.408 354.562 150.811C355.367 138.633 365.659 129.508 375.792 122.654C384.036 117.077 394.149 118.471 404.049 117.335Z" fill="#0CCC83" fill-opacity="0.3"/>
<path fill-rule="evenodd" clip-rule="evenodd" d="M401.175 446.584C406.097 447.574 408.88 452.192 412.378 455.808C415.792 459.336 420.815 462.147 420.994 467.065C421.176 472.054 417.029 475.96 413.231 479.179C409.807 482.08 405.544 482.871 401.175 483.862C394.674 485.337 387.018 490.75 382.089 486.243C377.193 481.768 382.383 473.702 382.801 467.065C383.171 461.197 380.444 454.538 384.362 450.171C388.35 445.726 395.335 445.409 401.175 446.584Z" fill="#0CCC83" fill-opacity="0.27"/>
</svg>
